<svg width="516" height="100" viewBox="0 0 516 100" fill="none" xmlns="http://www.w3.org/2000/svg">
<path d="M143.731 92H125.282V9.03333H143.731V92ZM185.376 30.9758C191.053 30.9758 195.929 32.0311 200.004 34.1417C204.153 36.1794 207.318 39.2361 209.502 43.3117C211.758 47.3144 212.886 52.2997 212.886 58.2675V66.7825H175.005C175.151 70.7125 176.424 73.8419 178.826 76.1708C181.228 78.4997 184.648 79.6642 189.088 79.6642C192.945 79.6642 196.438 79.3003 199.568 78.5725C202.697 77.8447 205.936 76.6803 209.283 75.0792V88.725C206.372 90.2533 203.243 91.345 199.895 92C196.547 92.7278 192.435 93.0917 187.559 93.0917C181.519 93.0917 176.133 92 171.403 89.8167C166.745 87.6333 163.07 84.2856 160.377 79.7733C157.757 75.1883 156.447 69.4025 156.447 62.4158C156.447 55.2836 157.648 49.425 160.049 44.84C162.451 40.1822 165.835 36.7253 170.202 34.4692C174.568 32.1403 179.626 30.9758 185.376 30.9758ZM185.703 43.7483C182.865 43.7483 180.5 44.6581 178.608 46.4775C176.788 48.2242 175.696 51.0261 175.333 54.8833H195.965C195.965 52.7728 195.565 50.8806 194.764 49.2067C194.036 47.5328 192.908 46.2228 191.38 45.2767C189.852 44.2578 187.96 43.7483 185.703 43.7483ZM235.703 61.4333L216.817 32.0675H237.668L248.148 50.08L258.737 32.0675H279.588L260.483 61.4333L280.461 92H259.61L248.148 72.5683L236.685 92H215.834L235.703 61.4333ZM307.268 32.0675V92H288.928V32.0675H307.268ZM298.207 8.26917C300.827 8.26917 303.12 8.85139 305.085 10.0158C307.05 11.1803 308.032 13.4364 308.032 16.7842C308.032 20.0592 307.05 22.3153 305.085 23.5525C303.12 24.7169 300.827 25.2992 298.207 25.2992C295.442 25.2992 293.076 24.7169 291.111 23.5525C289.219 22.3153 288.273 20.0592 288.273 16.7842C288.273 13.4364 289.219 11.1803 291.111 10.0158C293.076 8.85139 295.442 8.26917 298.207 8.26917ZM348.91 93.0917C342.942 93.0917 337.775 92.0364 333.408 89.9258C329.115 87.7425 325.803 84.3947 323.474 79.8825C321.218 75.2975 320.09 69.4389 320.09 62.3067C320.09 55.0289 321.364 49.0975 323.911 44.5125C326.531 39.8547 330.133 36.4342 334.718 34.2508C339.303 32.0675 344.543 30.9758 350.438 30.9758C354.368 30.9758 357.898 31.3761 361.028 32.1767C364.23 32.9772 367.068 33.9961 369.543 35.2333L364.193 49.0975C361.646 48.0786 359.281 47.2417 357.098 46.5867C354.914 45.9317 352.695 45.6042 350.438 45.6042C347.964 45.6042 345.853 46.2228 344.107 47.46C342.36 48.6244 341.014 50.4439 340.068 52.9183C339.194 55.3928 338.758 58.4858 338.758 62.1975C338.758 65.9092 339.231 68.9658 340.177 71.3675C341.123 73.6964 342.469 75.4431 344.216 76.6075C345.963 77.7719 348.073 78.3542 350.548 78.3542C353.75 78.3542 356.734 77.8811 359.499 76.935C362.338 75.9889 365.03 74.7153 367.578 73.1142V88.1792C365.103 89.7803 362.41 91.0175 359.499 91.8908C356.588 92.6914 353.058 93.0917 348.91 93.0917ZM436.393 61.87C436.393 66.8917 435.701 71.3311 434.319 75.1883C433.009 79.0456 431.044 82.3206 428.424 85.0133C425.876 87.7061 422.783 89.7439 419.144 91.1267C415.578 92.4367 411.466 93.0917 406.809 93.0917C402.587 93.0917 398.657 92.4367 395.019 91.1267C391.452 89.7439 388.359 87.7425 385.739 85.1225C383.192 82.4297 381.191 79.1547 379.735 75.2975C378.28 71.3675 377.552 66.8917 377.552 61.87C377.552 55.2472 378.716 49.6433 381.045 45.0583C383.447 40.4733 386.867 36.98 391.307 34.5783C395.746 32.1767 401.023 30.9758 407.136 30.9758C412.885 30.9758 417.944 32.1767 422.31 34.5783C426.677 36.98 430.097 40.4733 432.572 45.0583C435.119 49.6433 436.393 55.2472 436.393 61.87ZM396.219 61.87C396.219 65.5817 396.583 68.7111 397.311 71.2583C398.039 73.8056 399.203 75.7342 400.804 77.0442C402.405 78.2814 404.48 78.9 407.027 78.9C409.647 78.9 411.721 78.2814 413.249 77.0442C414.778 75.7342 415.906 73.8056 416.634 71.2583C417.361 68.7111 417.725 65.5817 417.725 61.87C417.725 58.1583 417.361 55.0653 416.634 52.5908C415.906 50.1164 414.741 48.2606 413.14 47.0233C411.612 45.7861 409.538 45.1675 406.918 45.1675C403.206 45.1675 400.477 46.5867 398.73 49.425C397.056 52.1906 396.219 56.3389 396.219 61.87ZM484.748 30.9758C491.08 30.9758 496.175 32.7225 500.032 36.2158C503.962 39.6364 505.927 45.2039 505.927 52.9183V92H487.587V58.0492C487.587 53.9008 486.895 50.7714 485.513 48.6608C484.13 46.5503 481.946 45.495 478.963 45.495C474.523 45.495 471.503 47.1689 469.902 50.5167C468.301 53.7917 467.5 58.5222 467.5 64.7083V92H449.051V32.0675H463.024L465.535 39.8183H466.408C467.718 37.8533 469.283 36.2158 471.103 34.9058C472.922 33.5958 474.996 32.6133 477.325 31.9583C479.654 31.3033 482.128 30.9758 484.748 30.9758Z" fill="#080A47"/>
<rect width="100" height="100" rx="25" fill="url(#paint0_linear_316_49)"/>
<path d="M72.8415 23.0173L79.3823 30.1006L27.0564 86.7668L20.5156 79.6835L72.8415 23.0173Z" fill="white"/>
<path d="M33.8125 44.5004L40.3532 37.4171L79.5977 79.9167L73.0569 87L33.8125 44.5004Z" fill="white"/>
<path d="M87 23.0173V33.0346H13L13 23.0173H87Z" fill="white"/>
<path d="M45.375 13H54.625V23.0173H45.375V13Z" fill="white"/>
<defs>
<linearGradient id="paint0_linear_316_49" x1="9.94652e-07" y1="100" x2="100" y2="9.94652e-07" gradientUnits="userSpaceOnUse">
<stop stop-color="#55589C"/>
<stop offset="1" stop-color="#080A47"/>
</linearGradient>
</defs>
</svg>
